<?xml version="1.0" encoding="UTF-8" standalone="no"?>
<!DOCTYPE svg PUBLIC "-//W3C//DTD SVG 1.1//EN" "http://www.w3.org/Graphics/SVG/1.1/DTD/svg11.dtd">
<svg width="100%" height="100%" viewBox="0 0 64 64" version="1.1" xmlns="http://www.w3.org/2000/svg" xmlns:xlink="http://www.w3.org/1999/xlink" xml:space="preserve" xmlns:serif="http://www.serif.com/" style="fill-rule:evenodd;clip-rule:evenodd;stroke-linejoin:round;stroke-miterlimit:2;">
    <g transform="matrix(1.1,0,0,1.1,-1,-1)">
        <circle cx="30" cy="30" r="20" style="fill:url(#_Linear1);"/>
    </g>
    <g transform="matrix(1,0,0,1,2,2)">
        <circle cx="30" cy="30" r="20" style="fill:url(#_Linear2);"/>
    </g>
    <g transform="matrix(0.9,0,0,0.9,5,5)">
        <path d="M30,10C41.038,10 50,18.962 50,30C50,34.436 24.991,27.222 20.556,27.222C9.517,27.222 10,35.596 10,30C10,18.962 18.962,10 30,10Z" style="fill:url(#_Linear3);"/>
    </g>
    <defs>
        <linearGradient id="_Linear1" x1="0" y1="0" x2="1" y2="0" gradientUnits="userSpaceOnUse" gradientTransform="matrix(2.42115e-15,-39.5404,39.5404,2.42115e-15,29.5455,49.5455)"><stop offset="0" style="stop-color:rgb(198,0,0);stop-opacity:1"/><stop offset="1" style="stop-color:rgb(111,0,0);stop-opacity:1"/></linearGradient>
        <linearGradient id="_Linear2" x1="0" y1="0" x2="1" y2="0" gradientUnits="userSpaceOnUse" gradientTransform="matrix(2.41717e-15,39.4754,-39.4754,2.41717e-15,31,10.0246)"><stop offset="0" style="stop-color:rgb(235,34,34);stop-opacity:1"/><stop offset="1" style="stop-color:rgb(65,0,0);stop-opacity:1"/></linearGradient>
        <linearGradient id="_Linear3" x1="0" y1="0" x2="1" y2="0" gradientUnits="userSpaceOnUse" gradientTransform="matrix(2.48331e-15,40.5556,-40.5556,2.48331e-15,30,-5.55556)"><stop offset="0" style="stop-color:white;stop-opacity:1"/><stop offset="1" style="stop-color:white;stop-opacity:0"/></linearGradient>
    </defs>
</svg>
